<svg width="742.03mm" height="627.02mm" viewBox="0 0 742.03 627.02" xmlns="http://www.w3.org/2000/svg" version="1.1" preserveAspectRatio="xMidYMid meet"><g id="svgGroup" stroke-linecap="round" fill-rule="evenodd" font-size="9pt" stroke="#000" stroke-width="0.25mm" fill="none" style="stroke:#000;stroke-width:0.25mm;fill:none"><path d="M 23.51 621.02 L 38.5 621.02 L 38.5 627.02 L 53.51 627.02 L 53.51 621.02 L 68.5 621.02 L 68.5 627.02 L 83.51 627.02 L 83.51 621.02 L 98.5 621.02 L 98.5 627.02 L 113.51 627.02 L 113.51 621.02 L 128.5 621.02 L 128.5 627.02 L 143.51 627.02 L 143.51 621.02 L 158.5 621.02 L 158.5 627.02 L 173.51 627.02 L 173.51 621.02 L 188.5 621.02 L 188.5 627.02 L 212.01 627.02 L 212.01 612.51 L 206.01 612.51 L 206.01 597.52 L 212.01 597.52 L 212.01 583.01 L 188.5 583.01 L 188.5 589.01 L 173.51 589.01 L 173.51 583.01 L 158.5 583.01 L 158.5 589.01 L 143.51 589.01 L 143.51 583.01 L 128.5 583.01 L 128.5 589.01 L 113.51 589.01 L 113.51 583.01 L 98.5 583.01 L 98.5 589.01 L 83.51 589.01 L 83.51 583.01 L 68.5 583.01 L 68.5 589.01 L 53.51 589.01 L 53.51 583.01 L 38.5 583.01 L 38.5 589.01 L 23.51 589.01 L 23.51 583.01 L 0 583.01 L 0 597.52 L 6 597.52 L 6 612.51 L 0 612.51 L 0 627.02 L 23.51 627.02 L 23.51 621.02 Z" id="front_outsideCutPath" stroke="#FF0000" stroke-width="0.1" style="stroke:#FF0000;stroke-width:0.1" vector-effect="non-scaling-stroke"/><path d="M 112.42 608.339 L 111.706 608.339 L 111.706 605.292 Q 111.706 604.925 111.6 604.677 A 0.849 0.849 0 0 0 111.444 604.433 A 0.804 0.804 0 0 0 111.114 604.222 Q 110.907 604.149 110.623 604.149 A 2.159 2.159 0 0 0 110.219 604.184 Q 109.994 604.227 109.821 604.322 A 1.006 1.006 0 0 0 109.54 604.549 A 1.166 1.166 0 0 0 109.337 604.903 Q 109.215 605.228 109.199 605.713 A 4.57 4.57 0 0 0 109.196 605.868 L 109.196 608.339 L 108.483 608.339 L 108.483 603.629 L 109.063 603.629 L 109.179 604.274 L 109.213 604.274 Q 109.433 603.925 109.828 603.734 A 1.932 1.932 0 0 1 110.515 603.551 A 2.336 2.336 0 0 1 110.709 603.543 A 2.817 2.817 0 0 1 111.188 603.581 Q 111.691 603.668 111.99 603.953 A 1.236 1.236 0 0 1 112.291 604.426 Q 112.363 604.621 112.395 604.863 A 3.113 3.113 0 0 1 112.42 605.266 L 112.42 608.339 Z M 98.714 603.629 L 98.714 604.183 L 97.515 604.183 L 97.515 608.339 L 96.801 608.339 L 96.801 604.183 L 95.959 604.183 L 95.959 603.861 L 96.801 603.603 L 96.801 603.341 Q 96.801 601.842 97.932 601.637 A 2.169 2.169 0 0 1 98.318 601.605 A 2.297 2.297 0 0 1 98.643 601.629 Q 98.896 601.666 99.195 601.755 L 99.01 602.327 A 3.464 3.464 0 0 0 98.741 602.251 Q 98.605 602.219 98.485 602.205 A 1.534 1.534 0 0 0 98.305 602.193 Q 97.901 602.193 97.708 602.462 A 0.826 0.826 0 0 0 97.599 602.682 Q 97.526 602.897 97.516 603.216 A 3.368 3.368 0 0 0 97.515 603.324 L 97.515 603.629 L 98.714 603.629 Z M 116.051 607.75 L 116.051 608.296 A 0.702 0.702 0 0 1 115.968 608.329 Q 115.879 608.359 115.752 608.381 A 2.668 2.668 0 0 1 115.71 608.389 A 3.092 3.092 0 0 1 115.508 608.415 Q 115.413 608.424 115.328 608.425 A 1.828 1.828 0 0 1 115.303 608.425 Q 114.213 608.425 113.993 607.509 A 2.243 2.243 0 0 1 113.937 606.985 L 113.937 604.183 L 113.262 604.183 L 113.262 603.839 L 113.937 603.543 L 114.238 602.537 L 114.65 602.537 L 114.65 603.629 L 116.017 603.629 L 116.017 604.183 L 114.65 604.183 L 114.65 606.955 A 1.437 1.437 0 0 0 114.671 607.208 Q 114.715 607.454 114.852 607.609 A 0.663 0.663 0 0 0 115.26 607.826 A 0.954 0.954 0 0 0 115.407 607.836 A 2.343 2.343 0 0 0 115.75 607.812 A 2.158 2.158 0 0 0 115.772 607.809 A 3.859 3.859 0 0 0 115.875 607.791 Q 115.98 607.771 116.051 607.75 Z M 102.285 603.594 L 102.186 604.256 Q 101.894 604.192 101.671 604.192 A 1.236 1.236 0 0 0 100.757 604.586 A 1.691 1.691 0 0 0 100.693 604.656 A 1.629 1.629 0 0 0 100.3 605.571 A 2.166 2.166 0 0 0 100.287 605.812 L 100.287 608.339 L 99.573 608.339 L 99.573 603.629 L 100.162 603.629 L 100.244 604.501 L 100.278 604.501 A 2.409 2.409 0 0 1 100.548 604.116 A 1.84 1.84 0 0 1 100.91 603.792 Q 101.28 603.543 101.722 603.543 A 3.275 3.275 0 0 1 102.015 603.555 A 2.391 2.391 0 0 1 102.285 603.594 Z M 106.652 607.778 A 1.99 1.99 0 0 0 106.889 607.453 Q 107.232 606.866 107.232 605.98 Q 107.232 605.522 107.135 605.141 A 2.222 2.222 0 0 0 106.65 604.2 A 1.868 1.868 0 0 0 105.783 603.641 A 2.397 2.397 0 0 0 105.079 603.543 A 2.771 2.771 0 0 0 104.581 603.586 A 1.887 1.887 0 0 0 103.48 604.185 Q 103.098 604.612 102.969 605.263 A 3.704 3.704 0 0 0 102.904 605.98 Q 102.904 606.723 103.171 607.278 A 2.345 2.345 0 0 0 103.222 607.379 A 1.931 1.931 0 0 0 103.927 608.129 A 1.987 1.987 0 0 0 104.383 608.331 A 2.291 2.291 0 0 0 105.049 608.425 A 2.77 2.77 0 0 0 105.533 608.385 A 1.902 1.902 0 0 0 106.652 607.778 Z M 103.643 605.98 A 3.613 3.613 0 0 0 103.678 606.496 Q 103.716 606.758 103.795 606.97 A 1.497 1.497 0 0 0 104.004 607.355 Q 104.365 607.828 105.066 607.828 A 1.657 1.657 0 0 0 105.503 607.773 A 1.153 1.153 0 0 0 106.13 607.357 A 1.532 1.532 0 0 0 106.368 606.893 Q 106.438 606.678 106.469 606.416 A 3.758 3.758 0 0 0 106.493 605.98 A 3.56 3.56 0 0 0 106.459 605.473 Q 106.422 605.214 106.343 605.005 A 1.469 1.469 0 0 0 106.13 604.615 A 1.174 1.174 0 0 0 105.4 604.18 A 1.799 1.799 0 0 0 105.057 604.149 A 1.698 1.698 0 0 0 104.635 604.198 A 1.136 1.136 0 0 0 104 604.609 Q 103.743 604.94 103.671 605.505 A 3.77 3.77 0 0 0 103.643 605.98 Z" id="front_labelLayer" stroke="#777777" fill="#777777" style="stroke:#777777;fill:#777777" vector-effect="non-scaling-stroke"/><path d="M 243.52 621.02 L 258.51 621.02 L 258.51 627.02 L 273.52 627.02 L 273.52 621.02 L 288.51 621.02 L 288.51 627.02 L 303.52 627.02 L 303.52 621.02 L 318.51 621.02 L 318.51 627.02 L 333.52 627.02 L 333.52 621.02 L 348.51 621.02 L 348.51 627.02 L 363.52 627.02 L 363.52 621.02 L 378.51 621.02 L 378.51 627.02 L 393.52 627.02 L 393.52 621.02 L 408.51 621.02 L 408.51 627.02 L 423.52 627.02 L 423.52 621.02 L 438.51 621.02 L 438.51 627.02 L 453.52 627.02 L 453.52 621.02 L 468.51 621.02 L 468.51 627.02 L 483.52 627.02 L 483.52 621.02 L 498.51 621.02 L 498.51 627.02 L 521.02 627.02 L 521.02 612.52 L 527.02 612.52 L 527.02 597.51 L 521.02 597.51 L 521.02 583.01 L 498.51 583.01 L 498.51 589.01 L 483.52 589.01 L 483.52 583.01 L 468.51 583.01 L 468.51 589.01 L 453.52 589.01 L 453.52 583.01 L 438.51 583.01 L 438.51 589.01 L 423.52 589.01 L 423.52 583.01 L 408.51 583.01 L 408.51 589.01 L 393.52 589.01 L 393.52 583.01 L 378.51 583.01 L 378.51 589.01 L 363.52 589.01 L 363.52 583.01 L 348.51 583.01 L 348.51 589.01 L 333.52 589.01 L 333.52 583.01 L 318.51 583.01 L 318.51 589.01 L 303.52 589.01 L 303.52 583.01 L 288.51 583.01 L 288.51 589.01 L 273.52 589.01 L 273.52 583.01 L 258.51 583.01 L 258.51 589.01 L 243.52 589.01 L 243.52 583.01 L 221.01 583.01 L 221.01 597.51 L 215.01 597.51 L 215.01 612.52 L 221.01 612.52 L 221.01 627.02 L 243.52 627.02 L 243.52 621.02 Z" id="left_outsideCutPath" stroke="#FF0000" stroke-width="0.1" style="stroke:#FF0000;stroke-width:0.1" vector-effect="non-scaling-stroke"/><path d="M 374.146 603.629 L 374.146 604.183 L 372.947 604.183 L 372.947 608.339 L 372.233 608.339 L 372.233 604.183 L 371.391 604.183 L 371.391 603.861 L 372.233 603.603 L 372.233 603.341 Q 372.233 601.842 373.364 601.637 A 2.169 2.169 0 0 1 373.751 601.605 A 2.297 2.297 0 0 1 374.076 601.629 Q 374.329 601.666 374.627 601.755 L 374.443 602.327 A 3.464 3.464 0 0 0 374.173 602.251 Q 374.037 602.219 373.917 602.205 A 1.534 1.534 0 0 0 373.738 602.193 Q 373.334 602.193 373.14 602.462 A 0.826 0.826 0 0 0 373.031 602.682 Q 372.959 602.897 372.949 603.216 A 3.368 3.368 0 0 0 372.947 603.324 L 372.947 603.629 L 374.146 603.629 Z M 370.807 605.662 L 370.807 606.113 L 367.562 606.113 A 2.863 2.863 0 0 0 367.612 606.592 Q 367.663 606.854 367.767 607.06 A 1.34 1.34 0 0 0 367.981 607.372 A 1.296 1.296 0 0 0 368.661 607.756 A 1.964 1.964 0 0 0 369.1 607.802 Q 369.861 607.802 370.605 607.484 L 370.605 608.12 A 4.283 4.283 0 0 1 370.214 608.268 A 3.275 3.275 0 0 1 369.889 608.354 Q 369.627 608.409 369.28 608.422 A 5.813 5.813 0 0 1 369.075 608.425 A 2.772 2.772 0 0 1 368.381 608.343 A 1.963 1.963 0 0 1 367.426 607.789 A 2.1 2.1 0 0 1 366.924 606.867 Q 366.837 606.54 366.824 606.152 A 4.075 4.075 0 0 1 366.822 606.023 A 3.746 3.746 0 0 1 366.892 605.28 Q 367.02 604.648 367.383 604.213 A 1.828 1.828 0 0 1 368.716 603.549 A 2.522 2.522 0 0 1 368.89 603.543 Q 369.775 603.543 370.291 604.125 Q 370.807 604.708 370.807 605.662 Z M 377.172 607.75 L 377.172 608.296 A 0.702 0.702 0 0 1 377.088 608.329 Q 377 608.359 376.873 608.381 A 2.668 2.668 0 0 1 376.83 608.389 A 3.092 3.092 0 0 1 376.628 608.415 Q 376.533 608.424 376.448 608.425 A 1.828 1.828 0 0 1 376.424 608.425 Q 375.334 608.425 375.113 607.509 A 2.243 2.243 0 0 1 375.057 606.985 L 375.057 604.183 L 374.382 604.183 L 374.382 603.839 L 375.057 603.543 L 375.358 602.537 L 375.771 602.537 L 375.771 603.629 L 377.137 603.629 L 377.137 604.183 L 375.771 604.183 L 375.771 606.955 A 1.437 1.437 0 0 0 375.791 607.208 Q 375.835 607.454 375.973 607.609 A 0.663 0.663 0 0 0 376.38 607.826 A 0.954 0.954 0 0 0 376.527 607.836 A 2.343 2.343 0 0 0 376.87 607.812 A 2.158 2.158 0 0 0 376.892 607.809 A 3.859 3.859 0 0 0 376.995 607.791 Q 377.101 607.771 377.172 607.75 Z M 365.572 601.652 L 365.572 608.339 L 364.858 608.339 L 364.858 601.652 L 365.572 601.652 Z M 367.579 605.533 L 370.042 605.533 Q 370.042 604.858 369.741 604.499 A 0.977 0.977 0 0 0 369.152 604.164 A 1.466 1.466 0 0 0 368.881 604.14 Q 368.314 604.14 367.976 604.51 A 1.409 1.409 0 0 0 367.696 604.983 Q 367.625 605.177 367.593 605.411 A 2.695 2.695 0 0 0 367.579 605.533 Z" id="left_labelLayer" stroke="#777777" fill="#777777" style="stroke:#777777;fill:#777777" vector-effect="non-scaling-stroke"/><path d="M 568.53 621.02 L 583.52 621.02 L 583.52 627.02 L 598.53 627.02 L 598.53 621.02 L 613.52 621.02 L 613.52 627.02 L 628.53 627.02 L 628.53 621.02 L 643.52 621.02 L 643.52 627.02 L 658.53 627.02 L 658.53 621.02 L 673.52 621.02 L 673.52 627.02 L 688.53 627.02 L 688.53 621.02 L 703.52 621.02 L 703.52 627.02 L 718.53 627.02 L 718.53 621.02 L 736.03 621.02 L 736.03 598.52 L 742.03 598.52 L 742.03 583.51 L 736.03 583.51 L 736.03 568.52 L 742.03 568.52 L 742.03 553.51 L 736.03 553.51 L 736.03 538.52 L 742.03 538.52 L 742.03 523.51 L 736.03 523.51 L 736.03 508.52 L 742.03 508.52 L 742.03 493.51 L 736.03 493.51 L 736.03 478.52 L 742.03 478.52 L 742.03 463.51 L 736.03 463.51 L 736.03 448.52 L 742.03 448.52 L 742.03 433.51 L 736.03 433.51 L 736.03 418.52 L 742.03 418.52 L 742.03 403.51 L 736.03 403.51 L 736.03 388.52 L 742.03 388.52 L 742.03 373.51 L 736.03 373.51 L 736.03 358.52 L 742.03 358.52 L 742.03 343.51 L 736.03 343.51 L 736.03 321.01 L 718.53 321.01 L 718.53 315.01 L 703.52 315.01 L 703.52 321.01 L 688.53 321.01 L 688.53 315.01 L 673.52 315.01 L 673.52 321.01 L 658.53 321.01 L 658.53 315.01 L 643.52 315.01 L 643.52 321.01 L 628.53 321.01 L 628.53 315.01 L 613.52 315.01 L 613.52 321.01 L 598.53 321.01 L 598.53 315.01 L 583.52 315.01 L 583.52 321.01 L 568.53 321.01 L 568.53 315.01 L 553.52 315.01 L 553.52 321.01 L 536.02 321.01 L 536.02 343.51 L 530.02 343.51 L 530.02 358.52 L 536.02 358.52 L 536.02 373.51 L 530.02 373.51 L 530.02 388.52 L 536.02 388.52 L 536.02 403.51 L 530.02 403.51 L 530.02 418.52 L 536.02 418.52 L 536.02 433.51 L 530.02 433.51 L 530.02 448.52 L 536.02 448.52 L 536.02 463.51 L 530.02 463.51 L 530.02 478.52 L 536.02 478.52 L 536.02 493.51 L 530.02 493.51 L 530.02 508.52 L 536.02 508.52 L 536.02 523.51 L 530.02 523.51 L 530.02 538.52 L 536.02 538.52 L 536.02 553.51 L 530.02 553.51 L 530.02 568.52 L 536.02 568.52 L 536.02 583.51 L 530.02 583.51 L 530.02 598.52 L 536.02 598.52 L 536.02 621.02 L 553.52 621.02 L 553.52 627.02 L 568.53 627.02 L 568.53 621.02 Z" id="top_outsideCutPath" stroke="#FF0000" stroke-width="0.1" style="stroke:#FF0000;stroke-width:0.1" vector-effect="non-scaling-stroke"/><path d="M 651.263 476.978 L 651.015 476.978 A 32.526 32.526 0 0 1 651.228 479.381 A 27.255 27.255 0 0 1 651.263 480.746 L 651.263 490.083 L 647.826 490.083 L 647.826 457.205 L 650.621 457.205 L 651.097 460.311 L 651.263 460.311 A 9.251 9.251 0 0 1 652.601 458.792 A 7.154 7.154 0 0 1 654.348 457.619 A 8.607 8.607 0 0 1 656.815 456.898 A 11.14 11.14 0 0 1 658.385 456.791 A 10.535 10.535 0 0 1 661.361 457.189 A 7.787 7.787 0 0 1 665.352 459.876 Q 667.806 462.961 667.806 468.531 A 20.151 20.151 0 0 1 667.539 471.921 Q 667.23 473.728 666.563 475.177 A 9.66 9.66 0 0 1 665.311 477.216 A 8.136 8.136 0 0 1 659.528 480.257 A 11.657 11.657 0 0 1 658.385 480.311 A 10.425 10.425 0 0 1 655.766 479.992 A 9.071 9.071 0 0 1 654.338 479.493 A 7.612 7.612 0 0 1 651.263 476.978 Z M 617.681 477.061 L 617.681 479.69 Q 617.176 479.933 616.24 480.1 A 12.854 12.854 0 0 1 616.035 480.135 Q 615.02 480.299 614.195 480.31 A 8.81 8.81 0 0 1 614.078 480.311 A 8.977 8.977 0 0 1 611.433 479.955 Q 607.495 478.74 607.495 473.375 L 607.495 459.876 L 604.244 459.876 L 604.244 458.22 L 607.495 456.791 L 608.944 451.947 L 610.931 451.947 L 610.931 457.205 L 617.515 457.205 L 617.515 459.876 L 610.931 459.876 L 610.931 473.23 Q 610.931 475.28 611.905 476.377 A 3.193 3.193 0 0 0 613.867 477.422 A 4.594 4.594 0 0 0 614.575 477.475 A 11.287 11.287 0 0 0 616.229 477.356 A 10.406 10.406 0 0 0 616.335 477.34 Q 617.145 477.212 617.635 477.074 A 5.161 5.161 0 0 0 617.681 477.061 Z M 639.006 477.195 A 9.588 9.588 0 0 0 640.148 475.627 Q 641.801 472.798 641.801 468.531 A 20.171 20.171 0 0 0 641.794 467.985 Q 641.658 462.965 638.996 459.959 A 8.997 8.997 0 0 0 634.819 457.265 A 11.549 11.549 0 0 0 631.429 456.791 A 13.348 13.348 0 0 0 629.031 456.997 A 9.091 9.091 0 0 0 623.727 459.887 Q 621.884 461.942 621.265 465.079 A 17.845 17.845 0 0 0 620.952 468.531 A 17.193 17.193 0 0 0 621.168 471.315 A 12.714 12.714 0 0 0 622.236 474.783 A 11.296 11.296 0 0 0 622.486 475.273 A 9.305 9.305 0 0 0 625.88 478.883 A 9.57 9.57 0 0 0 628.076 479.859 A 11.037 11.037 0 0 0 631.284 480.311 A 13.346 13.346 0 0 0 633.614 480.116 A 9.163 9.163 0 0 0 639.006 477.195 Z M 624.513 468.531 A 17.404 17.404 0 0 0 624.679 471.017 Q 625.05 473.581 626.252 475.156 A 5.633 5.633 0 0 0 629.921 477.316 A 8.536 8.536 0 0 0 631.366 477.433 A 7.983 7.983 0 0 0 633.472 477.171 A 5.556 5.556 0 0 0 636.491 475.166 A 7.378 7.378 0 0 0 637.64 472.928 Q 637.977 471.894 638.125 470.632 A 18.104 18.104 0 0 0 638.24 468.531 Q 638.24 464.203 636.491 461.957 A 5.654 5.654 0 0 0 632.976 459.86 A 8.668 8.668 0 0 0 631.325 459.711 A 8.179 8.179 0 0 0 629.289 459.949 A 5.474 5.474 0 0 0 626.232 461.926 A 7.106 7.106 0 0 0 625.127 464.06 Q 624.513 465.907 624.513 468.531 Z M 651.263 467.764 L 651.263 468.531 A 22.724 22.724 0 0 0 651.376 470.879 Q 651.623 473.249 652.413 474.691 A 5.184 5.184 0 0 0 652.857 475.373 A 4.986 4.986 0 0 0 655.387 477.08 Q 656.232 477.345 657.263 477.411 A 11.051 11.051 0 0 0 657.971 477.433 A 5.791 5.791 0 0 0 660.223 477.01 Q 661.521 476.469 662.448 475.232 A 6.849 6.849 0 0 0 662.578 475.052 Q 664.245 472.671 664.245 468.489 A 17.344 17.344 0 0 0 664.082 466.029 Q 663.903 464.783 663.527 463.77 A 7.286 7.286 0 0 0 662.578 461.978 A 5.346 5.346 0 0 0 658.667 459.751 A 7.394 7.394 0 0 0 657.888 459.711 A 9.903 9.903 0 0 0 656.038 459.871 Q 653.961 460.267 652.857 461.636 A 5.888 5.888 0 0 0 651.936 463.314 Q 651.354 464.897 651.274 467.237 A 21.874 21.874 0 0 0 651.263 467.764 Z" id="top_labelLayer" stroke="#777777" fill="#777777" style="stroke:#777777;fill:#777777" vector-effect="non-scaling-stroke"/><path d="M 23.51 574.01 L 38.5 574.01 L 38.5 580.01 L 53.51 580.01 L 53.51 574.01 L 68.5 574.01 L 68.5 580.01 L 83.51 580.01 L 83.51 574.01 L 98.5 574.01 L 98.5 580.01 L 113.51 580.01 L 113.51 574.01 L 128.5 574.01 L 128.5 580.01 L 143.51 580.01 L 143.51 574.01 L 158.5 574.01 L 158.5 580.01 L 173.51 580.01 L 173.51 574.01 L 188.5 574.01 L 188.5 580.01 L 212.01 580.01 L 212.01 565.5 L 206.01 565.5 L 206.01 550.51 L 212.01 550.51 L 212.01 536 L 188.5 536 L 188.5 542 L 173.51 542 L 173.51 536 L 158.5 536 L 158.5 542 L 143.51 542 L 143.51 536 L 128.5 536 L 128.5 542 L 113.51 542 L 113.51 536 L 98.5 536 L 98.5 542 L 83.51 542 L 83.51 536 L 68.5 536 L 68.5 542 L 53.51 542 L 53.51 536 L 38.5 536 L 38.5 542 L 23.51 542 L 23.51 536 L 0 536 L 0 550.51 L 6 550.51 L 6 565.5 L 0 565.5 L 0 580.01 L 23.51 580.01 L 23.51 574.01 Z" id="back_outsideCutPath" stroke="#FF0000" stroke-width="0.1" style="stroke:#FF0000;stroke-width:0.1" vector-effect="non-scaling-stroke"/><path d="M 112.031 558.895 L 112.065 558.895 Q 112.25 558.632 112.628 558.207 L 114.149 556.595 L 114.996 556.595 L 113.088 558.602 L 115.129 561.306 L 114.265 561.306 L 112.602 559.079 L 112.065 559.544 L 112.065 561.306 L 111.36 561.306 L 111.36 554.618 L 112.065 554.618 L 112.065 558.164 A 4.755 4.755 0 0 1 112.063 558.298 Q 112.057 558.518 112.032 558.877 A 30.07 30.07 0 0 1 112.031 558.895 Z M 97.594 560.7 L 97.543 560.7 L 97.392 561.306 L 96.881 561.306 L 96.881 554.618 L 97.594 554.618 L 97.594 556.243 A 14.875 14.875 0 0 1 97.586 556.745 Q 97.578 556.983 97.562 557.195 A 8.848 8.848 0 0 1 97.56 557.223 L 97.594 557.223 A 1.622 1.622 0 0 1 98.778 556.535 A 2.437 2.437 0 0 1 99.073 556.518 A 2.181 2.181 0 0 1 99.686 556.6 A 1.632 1.632 0 0 1 100.514 557.152 Q 100.926 557.659 101.008 558.505 A 4.579 4.579 0 0 1 101.028 558.946 A 4.183 4.183 0 0 1 100.973 559.65 Q 100.909 560.025 100.77 560.326 A 2.005 2.005 0 0 1 100.51 560.749 A 1.689 1.689 0 0 1 99.31 561.38 A 2.42 2.42 0 0 1 99.073 561.392 A 2.164 2.164 0 0 1 98.529 561.325 A 1.883 1.883 0 0 1 98.232 561.222 A 1.58 1.58 0 0 1 97.594 560.7 Z M 105.7 561.306 L 105.171 561.306 L 105.029 560.635 L 104.995 560.635 Q 104.746 560.948 104.498 561.118 A 1.314 1.314 0 0 1 104.292 561.235 Q 103.942 561.392 103.418 561.392 Q 102.857 561.392 102.491 561.161 A 1.229 1.229 0 0 1 102.32 561.031 Q 101.922 560.67 101.922 560.003 A 1.234 1.234 0 0 1 102.624 558.838 Q 103.188 558.538 104.204 558.508 L 105.004 558.482 L 105.004 558.19 Q 105.004 557.635 104.765 557.371 A 0.724 0.724 0 0 0 104.468 557.178 Q 104.35 557.134 104.203 557.118 A 1.763 1.763 0 0 0 104.002 557.107 A 2.323 2.323 0 0 0 103.468 557.173 Q 103.222 557.231 102.955 557.34 A 4.778 4.778 0 0 0 102.67 557.468 L 102.451 556.922 A 3.289 3.289 0 0 1 103.086 556.661 A 3.744 3.744 0 0 1 103.214 556.625 A 3.304 3.304 0 0 1 104.045 556.518 A 3.013 3.013 0 0 1 104.504 556.55 Q 104.74 556.587 104.928 556.664 A 1.214 1.214 0 0 1 105.294 556.892 Q 105.612 557.185 105.681 557.756 A 2.807 2.807 0 0 1 105.7 558.091 L 105.7 561.306 Z M 110.311 556.754 L 110.092 557.36 Q 109.856 557.266 109.577 557.203 A 2.947 2.947 0 0 0 109.352 557.162 Q 109.206 557.141 109.082 557.141 A 1.583 1.583 0 0 0 108.44 557.262 Q 107.647 557.611 107.647 558.972 A 3.455 3.455 0 0 0 107.681 559.475 Q 107.719 559.73 107.798 559.937 A 1.48 1.48 0 0 0 107.997 560.304 A 1.133 1.133 0 0 0 108.731 560.743 A 1.726 1.726 0 0 0 109.035 560.768 Q 109.624 560.768 110.243 560.515 L 110.243 561.147 A 2.029 2.029 0 0 1 109.746 561.322 Q 109.434 561.392 109.052 561.392 A 2.666 2.666 0 0 1 108.404 561.317 A 1.808 1.808 0 0 1 107.468 560.762 A 2.064 2.064 0 0 1 107.039 559.974 Q 106.945 559.661 106.918 559.285 A 4.314 4.314 0 0 1 106.908 558.981 A 3.937 3.937 0 0 1 106.968 558.265 Q 107.042 557.865 107.206 557.551 A 1.967 1.967 0 0 1 107.477 557.154 Q 108.046 556.509 109.099 556.509 Q 109.439 556.509 109.779 556.582 Q 110.114 556.655 110.307 556.752 A 1.058 1.058 0 0 1 110.311 556.754 Z M 98.969 557.115 Q 98.239 557.115 97.916 557.534 A 1.221 1.221 0 0 0 97.74 557.871 Q 97.62 558.205 97.599 558.714 A 5.497 5.497 0 0 0 97.594 558.946 A 4.717 4.717 0 0 0 97.617 559.434 Q 97.682 560.053 97.925 560.367 Q 98.222 560.75 98.84 560.79 A 2.294 2.294 0 0 0 98.987 560.794 A 1.422 1.422 0 0 0 99.391 560.74 A 1.026 1.026 0 0 0 99.967 560.315 A 1.638 1.638 0 0 0 100.169 559.877 Q 100.233 559.669 100.263 559.417 A 4.088 4.088 0 0 0 100.289 558.938 A 4.215 4.215 0 0 0 100.263 558.457 Q 100.203 557.932 99.999 557.615 A 1.183 1.183 0 0 0 99.967 557.567 A 1.04 1.04 0 0 0 99.304 557.147 A 1.65 1.65 0 0 0 98.969 557.115 Z M 104.986 559.415 L 104.986 558.989 L 104.273 559.019 A 5.239 5.239 0 0 0 103.854 559.05 Q 103.442 559.098 103.183 559.212 A 1.096 1.096 0 0 0 103.046 559.284 A 0.761 0.761 0 0 0 102.683 559.836 A 1.127 1.127 0 0 0 102.67 560.012 A 1.02 1.02 0 0 0 102.695 560.246 Q 102.737 560.426 102.851 560.549 A 0.635 0.635 0 0 0 102.904 560.601 Q 103.106 560.775 103.448 560.799 A 1.605 1.605 0 0 0 103.56 560.803 Q 104.135 560.803 104.497 560.53 A 1.191 1.191 0 0 0 104.606 560.438 A 1.195 1.195 0 0 0 104.939 559.841 Q 104.986 559.649 104.986 559.422 A 2.241 2.241 0 0 0 104.986 559.415 Z" id="back_labelLayer" stroke="#777777" fill="#777777" style="stroke:#777777;fill:#777777" vector-effect="non-scaling-stroke"/><path d="M 243.52 574.01 L 258.51 574.01 L 258.51 580.01 L 273.52 580.01 L 273.52 574.01 L 288.51 574.01 L 288.51 580.01 L 303.52 580.01 L 303.52 574.01 L 318.51 574.01 L 318.51 580.01 L 333.52 580.01 L 333.52 574.01 L 348.51 574.01 L 348.51 580.01 L 363.52 580.01 L 363.52 574.01 L 378.51 574.01 L 378.51 580.01 L 393.52 580.01 L 393.52 574.01 L 408.51 574.01 L 408.51 580.01 L 423.52 580.01 L 423.52 574.01 L 438.51 574.01 L 438.51 580.01 L 453.52 580.01 L 453.52 574.01 L 468.51 574.01 L 468.51 580.01 L 483.52 580.01 L 483.52 574.01 L 498.51 574.01 L 498.51 580.01 L 521.02 580.01 L 521.02 565.51 L 527.02 565.51 L 527.02 550.5 L 521.02 550.5 L 521.02 536 L 498.51 536 L 498.51 542 L 483.52 542 L 483.52 536 L 468.51 536 L 468.51 542 L 453.52 542 L 453.52 536 L 438.51 536 L 438.51 542 L 423.52 542 L 423.52 536 L 408.51 536 L 408.51 542 L 393.52 542 L 393.52 536 L 378.51 536 L 378.51 542 L 363.52 542 L 363.52 536 L 348.51 536 L 348.51 542 L 333.52 542 L 333.52 536 L 318.51 536 L 318.51 542 L 303.52 542 L 303.52 536 L 288.51 536 L 288.51 542 L 273.52 542 L 273.52 536 L 258.51 536 L 258.51 542 L 243.52 542 L 243.52 536 L 221.01 536 L 221.01 550.5 L 215.01 550.5 L 215.01 565.51 L 221.01 565.51 L 221.01 580.01 L 243.52 580.01 L 243.52 574.01 Z" id="right_outsideCutPath" stroke="#FF0000" stroke-width="0.1" style="stroke:#FF0000;stroke-width:0.1" vector-effect="non-scaling-stroke"/><path d="M 376.488 560.291 L 375.775 560.291 L 375.775 557.244 Q 375.775 556.877 375.668 556.629 A 0.849 0.849 0 0 0 375.513 556.385 A 0.804 0.804 0 0 0 375.183 556.174 Q 374.976 556.101 374.692 556.101 A 2.159 2.159 0 0 0 374.288 556.136 Q 374.064 556.179 373.892 556.273 A 0.999 0.999 0 0 0 373.607 556.505 A 1.187 1.187 0 0 0 373.405 556.862 Q 373.284 557.189 373.267 557.675 A 4.605 4.605 0 0 0 373.265 557.829 L 373.265 560.291 L 372.551 560.291 L 372.551 553.604 L 373.265 553.604 L 373.265 555.628 Q 373.265 555.891 373.247 556.09 A 2.791 2.791 0 0 1 373.231 556.234 L 373.274 556.234 A 1.425 1.425 0 0 1 373.773 555.754 A 1.741 1.741 0 0 1 373.873 555.699 A 1.832 1.832 0 0 1 374.474 555.521 A 2.315 2.315 0 0 1 374.761 555.504 Q 375.624 555.504 376.056 555.914 Q 376.392 556.233 376.467 556.843 A 3.085 3.085 0 0 1 376.488 557.218 L 376.488 560.291 Z M 369.956 555.581 L 371.584 555.581 L 371.584 556.032 L 370.712 556.135 A 1.159 1.159 0 0 1 370.812 556.285 Q 370.856 556.362 370.896 556.454 A 2.199 2.199 0 0 1 370.927 556.529 A 1.373 1.373 0 0 1 371.008 556.857 A 1.763 1.763 0 0 1 371.021 557.077 A 1.636 1.636 0 0 1 370.946 557.584 A 1.323 1.323 0 0 1 370.549 558.181 Q 370.123 558.553 369.411 558.59 A 3.099 3.099 0 0 1 369.251 558.594 Q 369.04 558.594 368.855 558.559 Q 368.4 558.8 368.4 559.165 A 0.37 0.37 0 0 0 368.419 559.286 Q 368.454 559.391 368.559 559.451 Q 368.718 559.544 369.105 559.544 L 369.938 559.544 Q 370.703 559.544 371.114 559.866 A 1.044 1.044 0 0 1 371.502 560.531 A 1.568 1.568 0 0 1 371.524 560.803 A 1.545 1.545 0 0 1 371.436 561.337 Q 371.289 561.739 370.897 561.996 A 2.14 2.14 0 0 1 370.345 562.246 Q 370.073 562.328 369.742 562.368 A 5.655 5.655 0 0 1 369.066 562.406 A 3.997 3.997 0 0 1 368.53 562.372 Q 368.258 562.335 368.035 562.258 A 1.658 1.658 0 0 1 367.641 562.062 Q 367.14 561.718 367.14 561.091 A 1.091 1.091 0 0 1 367.416 560.347 A 1.246 1.246 0 0 1 367.843 560.035 A 1.766 1.766 0 0 1 368.189 559.922 A 0.74 0.74 0 0 1 367.902 559.689 A 0.879 0.879 0 0 1 367.886 559.668 A 0.661 0.661 0 0 1 367.765 559.311 A 0.819 0.819 0 0 1 367.764 559.269 A 0.816 0.816 0 0 1 367.805 559.006 A 0.723 0.723 0 0 1 367.901 558.817 A 1.021 1.021 0 0 1 368.036 558.665 Q 368.157 558.552 368.335 558.443 A 1.251 1.251 0 0 1 367.792 558.008 A 1.55 1.55 0 0 1 367.74 557.932 A 1.475 1.475 0 0 1 367.514 557.221 A 1.8 1.8 0 0 1 367.51 557.107 A 2.061 2.061 0 0 1 367.564 556.619 A 1.356 1.356 0 0 1 367.974 555.914 Q 368.375 555.552 369.065 555.503 A 3.151 3.151 0 0 1 369.289 555.495 A 2.735 2.735 0 0 1 369.651 555.518 A 2.083 2.083 0 0 1 369.956 555.581 Z M 380.12 559.703 L 380.12 560.248 A 0.702 0.702 0 0 1 380.037 560.281 Q 379.948 560.311 379.821 560.334 A 2.668 2.668 0 0 1 379.778 560.341 A 3.092 3.092 0 0 1 379.577 560.367 Q 379.482 560.376 379.396 560.377 A 1.828 1.828 0 0 1 379.372 560.377 Q 378.282 560.377 378.061 559.462 A 2.243 2.243 0 0 1 378.005 558.938 L 378.005 556.135 L 377.331 556.135 L 377.331 555.792 L 378.005 555.495 L 378.306 554.489 L 378.719 554.489 L 378.719 555.581 L 380.086 555.581 L 380.086 556.135 L 378.719 556.135 L 378.719 558.908 A 1.437 1.437 0 0 0 378.74 559.16 Q 378.784 559.406 378.921 559.561 A 0.663 0.663 0 0 0 379.328 559.778 A 0.954 0.954 0 0 0 379.475 559.789 A 2.343 2.343 0 0 0 379.819 559.764 A 2.158 2.158 0 0 0 379.841 559.761 A 3.859 3.859 0 0 0 379.944 559.743 Q 380.049 559.723 380.12 559.703 Z M 364.622 555.547 L 364.523 556.208 Q 364.231 556.144 364.007 556.144 A 1.236 1.236 0 0 0 363.094 556.538 A 1.691 1.691 0 0 0 363.03 556.608 A 1.629 1.629 0 0 0 362.637 557.523 A 2.166 2.166 0 0 0 362.623 557.764 L 362.623 560.291 L 361.91 560.291 L 361.91 555.581 L 362.499 555.581 L 362.58 556.453 L 362.615 556.453 A 2.409 2.409 0 0 1 362.884 556.069 A 1.84 1.84 0 0 1 363.247 555.744 Q 363.616 555.495 364.059 555.495 A 3.275 3.275 0 0 1 364.352 555.508 A 2.391 2.391 0 0 1 364.622 555.547 Z M 366.216 555.581 L 366.216 560.291 L 365.503 560.291 L 365.503 555.581 L 366.216 555.581 Z M 369.711 560.184 L 368.855 560.184 A 1.64 1.64 0 0 0 368.56 560.209 Q 368.281 560.26 368.099 560.416 A 0.752 0.752 0 0 0 367.852 560.842 A 1.142 1.142 0 0 0 367.828 561.082 A 0.717 0.717 0 0 0 367.875 561.348 Q 367.952 561.54 368.15 561.662 A 1.143 1.143 0 0 0 368.432 561.783 Q 368.696 561.86 369.069 561.86 A 3.584 3.584 0 0 0 369.075 561.86 A 4.796 4.796 0 0 0 369.543 561.839 Q 370.012 561.793 370.307 561.646 A 1.185 1.185 0 0 0 370.405 561.592 A 1.041 1.041 0 0 0 370.646 561.389 A 0.78 0.78 0 0 0 370.837 560.863 Q 370.837 560.481 370.6 560.332 A 0.677 0.677 0 0 0 370.44 560.262 Q 370.185 560.184 369.711 560.184 Z M 368.215 557.09 Q 368.215 557.584 368.494 557.837 Q 368.746 558.066 369.176 558.088 A 1.837 1.837 0 0 0 369.272 558.091 A 1.554 1.554 0 0 0 369.679 558.042 Q 370.317 557.869 370.317 557.077 A 1.534 1.534 0 0 0 370.264 556.657 Q 370.081 556.015 369.259 556.015 A 1.497 1.497 0 0 0 368.954 556.044 Q 368.668 556.104 368.486 556.286 A 0.856 0.856 0 0 0 368.278 556.635 Q 368.215 556.831 368.215 557.09 Z M 365.453 554.174 A 0.791 0.791 0 0 0 365.443 554.305 A 0.842 0.842 0 0 0 365.447 554.385 Q 365.464 554.566 365.563 554.663 A 0.4 0.4 0 0 0 365.708 554.756 A 0.453 0.453 0 0 0 365.864 554.782 Q 366.036 554.782 366.161 554.663 Q 366.247 554.581 366.274 554.44 A 0.738 0.738 0 0 0 366.285 554.305 Q 366.285 554.064 366.161 553.948 A 0.42 0.42 0 0 0 365.864 553.832 A 0.545 0.545 0 0 0 365.828 553.833 A 0.413 0.413 0 0 0 365.563 553.946 A 0.334 0.334 0 0 0 365.489 554.05 Q 365.464 554.105 365.453 554.174 Z" id="right_labelLayer" stroke="#777777" fill="#777777" style="stroke:#777777;fill:#777777" vector-effect="non-scaling-stroke"/><path d="M 568.53 306.01 L 583.52 306.01 L 583.52 312.01 L 598.53 312.01 L 598.53 306.01 L 613.52 306.01 L 613.52 312.01 L 628.53 312.01 L 628.53 306.01 L 643.52 306.01 L 643.52 312.01 L 658.53 312.01 L 658.53 306.01 L 673.52 306.01 L 673.52 312.01 L 688.53 312.01 L 688.53 306.01 L 703.52 306.01 L 703.52 312.01 L 718.53 312.01 L 718.53 306.01 L 736.03 306.01 L 736.03 283.51 L 742.03 283.51 L 742.03 268.5 L 736.03 268.5 L 736.03 253.51 L 742.03 253.51 L 742.03 238.5 L 736.03 238.5 L 736.03 223.51 L 742.03 223.51 L 742.03 208.5 L 736.03 208.5 L 736.03 193.51 L 742.03 193.51 L 742.03 178.5 L 736.03 178.5 L 736.03 163.51 L 742.03 163.51 L 742.03 148.5 L 736.03 148.5 L 736.03 133.51 L 742.03 133.51 L 742.03 118.5 L 736.03 118.5 L 736.03 103.51 L 742.03 103.51 L 742.03 88.5 L 736.03 88.5 L 736.03 73.51 L 742.03 73.51 L 742.03 58.5 L 736.03 58.5 L 736.03 43.51 L 742.03 43.51 L 742.03 28.5 L 736.03 28.5 L 736.03 6 L 718.53 6 L 718.53 0 L 703.52 0 L 703.52 6 L 688.53 6 L 688.53 0 L 673.52 0 L 673.52 6 L 658.53 6 L 658.53 0 L 643.52 0 L 643.52 6 L 628.53 6 L 628.53 0 L 613.52 0 L 613.52 6 L 598.53 6 L 598.53 0 L 583.52 0 L 583.52 6 L 568.53 6 L 568.53 0 L 553.52 0 L 553.52 6 L 536.02 6 L 536.02 28.5 L 530.02 28.5 L 530.02 43.51 L 536.02 43.51 L 536.02 58.5 L 530.02 58.5 L 530.02 73.51 L 536.02 73.51 L 536.02 88.5 L 530.02 88.5 L 530.02 103.51 L 536.02 103.51 L 536.02 118.5 L 530.02 118.5 L 530.02 133.51 L 536.02 133.51 L 536.02 148.5 L 530.02 148.5 L 530.02 163.51 L 536.02 163.51 L 536.02 178.5 L 530.02 178.5 L 530.02 193.51 L 536.02 193.51 L 536.02 208.5 L 530.02 208.5 L 530.02 223.51 L 536.02 223.51 L 536.02 238.5 L 530.02 238.5 L 530.02 253.51 L 536.02 253.51 L 536.02 268.5 L 530.02 268.5 L 530.02 283.51 L 536.02 283.51 L 536.02 306.01 L 553.52 306.01 L 553.52 312.01 L 568.53 312.01 L 568.53 306.01 Z" id="bottom_outsideCutPath" stroke="#FF0000" stroke-width="0.1" style="stroke:#FF0000;stroke-width:0.1" vector-effect="non-scaling-stroke"/><path d="M 705.777 171.905 L 702.34 171.905 L 702.34 157.143 A 10.139 10.139 0 0 0 702.238 155.652 Q 701.996 154.028 701.181 153.075 A 3.617 3.617 0 0 0 699.5 151.988 Q 698.666 151.719 697.578 151.719 A 8.844 8.844 0 0 0 695.778 151.89 Q 694.708 152.112 693.902 152.625 A 4.551 4.551 0 0 0 692.837 153.561 Q 691.312 155.396 691.305 159.199 A 19.194 19.194 0 0 0 691.305 159.234 L 691.305 171.905 L 687.868 171.905 L 687.868 157.143 A 10.139 10.139 0 0 0 687.766 155.652 Q 687.524 154.028 686.709 153.075 Q 685.705 151.901 683.725 151.743 A 8.048 8.048 0 0 0 683.085 151.719 Q 680.831 151.719 679.419 152.662 A 4.505 4.505 0 0 0 678.354 153.655 Q 676.994 155.409 676.867 159.195 A 23.929 23.929 0 0 0 676.853 160 L 676.853 171.905 L 673.417 171.905 L 673.417 149.214 L 676.212 149.214 L 676.771 152.319 L 676.936 152.319 A 6.755 6.755 0 0 1 679.679 149.731 A 8.16 8.16 0 0 1 682.902 148.827 A 9.855 9.855 0 0 1 683.644 148.799 A 11.252 11.252 0 0 1 686.177 149.063 Q 687.735 149.424 688.822 150.277 A 5.868 5.868 0 0 1 690.601 152.65 L 690.767 152.65 A 7.176 7.176 0 0 1 693.469 149.967 A 8.622 8.622 0 0 1 693.707 149.835 A 8.699 8.699 0 0 1 696.898 148.864 A 10.847 10.847 0 0 1 698.096 148.799 Q 701.947 148.799 703.862 150.777 A 5.918 5.918 0 0 1 705.133 152.855 Q 705.475 153.771 705.635 154.913 A 15.764 15.764 0 0 1 705.777 157.102 L 705.777 171.905 Z M 569.71 168.986 L 569.461 168.986 L 568.737 171.905 L 566.273 171.905 L 566.273 139.69 L 569.71 139.69 L 569.71 147.516 Q 569.71 150.06 569.555 152.101 A 42.902 42.902 0 0 1 569.544 152.236 L 569.71 152.236 A 7.814 7.814 0 0 1 575.413 148.924 A 11.738 11.738 0 0 1 576.832 148.841 A 10.504 10.504 0 0 1 579.788 149.235 A 7.863 7.863 0 0 1 583.778 151.895 Q 585.759 154.34 586.154 158.412 A 22.06 22.06 0 0 1 586.252 160.539 A 20.151 20.151 0 0 1 585.985 163.929 Q 585.676 165.736 585.01 167.186 A 9.66 9.66 0 0 1 583.757 169.224 A 8.136 8.136 0 0 1 577.975 172.265 A 11.657 11.657 0 0 1 576.832 172.319 A 10.425 10.425 0 0 1 574.212 172 A 9.071 9.071 0 0 1 572.784 171.501 A 7.612 7.612 0 0 1 569.71 168.986 Z M 628.302 169.069 L 628.302 171.698 Q 627.797 171.941 626.862 172.108 A 12.854 12.854 0 0 1 626.656 172.143 Q 625.642 172.308 624.816 172.319 A 8.81 8.81 0 0 1 624.7 172.319 A 8.977 8.977 0 0 1 622.054 171.963 Q 618.116 170.748 618.116 165.383 L 618.116 151.884 L 614.865 151.884 L 614.865 150.228 L 618.116 148.799 L 619.565 143.955 L 621.553 143.955 L 621.553 149.214 L 628.137 149.214 L 628.137 151.884 L 621.553 151.884 L 621.553 165.238 Q 621.553 167.288 622.526 168.386 A 3.193 3.193 0 0 0 624.489 169.43 A 4.594 4.594 0 0 0 625.197 169.483 A 11.287 11.287 0 0 0 626.85 169.365 A 10.406 10.406 0 0 0 626.957 169.348 Q 627.767 169.22 628.256 169.082 A 5.161 5.161 0 0 0 628.302 169.069 Z M 643.271 169.069 L 643.271 171.698 Q 642.766 171.941 641.831 172.108 A 12.854 12.854 0 0 1 641.625 172.143 Q 640.611 172.308 639.785 172.319 A 8.81 8.81 0 0 1 639.669 172.319 A 8.977 8.977 0 0 1 637.023 171.963 Q 633.085 170.748 633.085 165.383 L 633.085 151.884 L 629.834 151.884 L 629.834 150.228 L 633.085 148.799 L 634.534 143.955 L 636.522 143.955 L 636.522 149.214 L 643.106 149.214 L 643.106 151.884 L 636.522 151.884 L 636.522 165.238 Q 636.522 167.288 637.495 168.386 A 3.193 3.193 0 0 0 639.458 169.43 A 4.594 4.594 0 0 0 640.166 169.483 A 11.287 11.287 0 0 0 641.819 169.365 A 10.406 10.406 0 0 0 641.926 169.348 Q 642.736 169.22 643.225 169.082 A 5.161 5.161 0 0 0 643.271 169.069 Z M 609.047 169.203 A 9.588 9.588 0 0 0 610.189 167.635 Q 611.843 164.806 611.843 160.539 A 20.171 20.171 0 0 0 611.835 159.993 Q 611.699 154.973 609.037 151.967 A 8.997 8.997 0 0 0 604.86 149.273 A 11.549 11.549 0 0 0 601.47 148.799 A 13.348 13.348 0 0 0 599.072 149.005 A 9.091 9.091 0 0 0 593.768 151.895 Q 591.925 153.95 591.307 157.088 A 17.845 17.845 0 0 0 590.993 160.539 A 17.193 17.193 0 0 0 591.209 163.324 A 12.714 12.714 0 0 0 592.277 166.791 A 11.296 11.296 0 0 0 592.527 167.281 A 9.305 9.305 0 0 0 595.921 170.891 A 9.57 9.57 0 0 0 598.118 171.867 A 11.037 11.037 0 0 0 601.325 172.319 A 13.346 13.346 0 0 0 603.655 172.125 A 9.163 9.163 0 0 0 609.047 169.203 Z M 664.597 169.203 A 9.588 9.588 0 0 0 665.738 167.635 Q 667.392 164.806 667.392 160.539 A 20.171 20.171 0 0 0 667.384 159.993 Q 667.248 154.973 664.586 151.967 A 8.997 8.997 0 0 0 660.409 149.273 A 11.549 11.549 0 0 0 657.019 148.799 A 13.348 13.348 0 0 0 654.621 149.005 A 9.091 9.091 0 0 0 649.317 151.895 Q 647.475 153.95 646.856 157.088 A 17.845 17.845 0 0 0 646.543 160.539 A 17.193 17.193 0 0 0 646.759 163.324 A 12.714 12.714 0 0 0 647.826 166.791 A 11.296 11.296 0 0 0 648.076 167.281 A 9.305 9.305 0 0 0 651.47 170.891 A 9.57 9.57 0 0 0 653.667 171.867 A 11.037 11.037 0 0 0 656.874 172.319 A 13.346 13.346 0 0 0 659.204 172.125 A 9.163 9.163 0 0 0 664.597 169.203 Z M 594.555 160.539 A 17.404 17.404 0 0 0 594.72 163.025 Q 595.091 165.589 596.294 167.164 A 5.633 5.633 0 0 0 599.962 169.325 A 8.536 8.536 0 0 0 601.408 169.441 A 7.983 7.983 0 0 0 603.514 169.18 A 5.556 5.556 0 0 0 606.532 167.174 A 7.378 7.378 0 0 0 607.681 164.937 Q 608.019 163.903 608.166 162.64 A 18.104 18.104 0 0 0 608.281 160.539 Q 608.281 156.212 606.532 153.965 A 5.654 5.654 0 0 0 603.017 151.868 A 8.668 8.668 0 0 0 601.366 151.719 A 8.179 8.179 0 0 0 599.33 151.957 A 5.474 5.474 0 0 0 596.273 153.934 A 7.106 7.106 0 0 0 595.168 156.069 Q 594.555 157.915 594.555 160.539 Z M 650.104 160.539 A 17.404 17.404 0 0 0 650.269 163.025 Q 650.64 165.589 651.843 167.164 A 5.633 5.633 0 0 0 655.512 169.325 A 8.536 8.536 0 0 0 656.957 169.441 A 7.983 7.983 0 0 0 659.063 169.18 A 5.556 5.556 0 0 0 662.081 167.174 A 7.378 7.378 0 0 0 663.23 164.937 Q 663.568 163.903 663.716 162.64 A 18.104 18.104 0 0 0 663.831 160.539 Q 663.831 156.212 662.081 153.965 A 5.654 5.654 0 0 0 658.566 151.868 A 8.668 8.668 0 0 0 656.915 151.719 A 8.179 8.179 0 0 0 654.879 151.957 A 5.474 5.474 0 0 0 651.822 153.934 A 7.106 7.106 0 0 0 650.718 156.069 Q 650.104 157.915 650.104 160.539 Z M 572.59 152.572 A 4.571 4.571 0 0 0 571.262 153.737 Q 569.71 155.756 569.71 160.539 A 22.724 22.724 0 0 0 569.822 162.887 Q 570.069 165.257 570.86 166.699 A 5.184 5.184 0 0 0 571.304 167.381 A 4.986 4.986 0 0 0 573.833 169.088 Q 574.679 169.353 575.71 169.419 A 11.051 11.051 0 0 0 576.418 169.441 A 6.851 6.851 0 0 0 578.364 169.181 A 4.943 4.943 0 0 0 581.138 167.133 A 7.89 7.89 0 0 0 582.115 165.021 Q 582.421 164.019 582.564 162.805 A 19.693 19.693 0 0 0 582.691 160.497 A 20.305 20.305 0 0 0 582.568 158.184 Q 582.254 155.455 581.138 153.893 Q 579.586 151.719 576.335 151.719 Q 574.047 151.719 572.59 152.572 Z" id="bottom_labelLayer" stroke="#777777" fill="#777777" style="stroke:#777777;fill:#777777" vector-effect="non-scaling-stroke"/></g></svg>